# Blender v2.69 (sub 0) OBJ File: 'shapes.blend'
# www.blender.org
o Circle.004
v 0.000000 0.062500 -0.000000
v -0.036737 0.050564 -0.000000
v -0.059441 0.019314 -0.000000
v -0.059441 -0.019314 0.000000
v -0.036737 -0.050564 0.000000
v 0.000000 -0.062500 0.000000
v 0.036737 -0.050564 0.000000
v 0.059441 -0.019314 0.000000
v 0.059441 0.019314 -0.000000
v 0.036737 0.050564 -0.000000
vt 0.190983 0.100406
vt 0.500000 0.000000
vt 0.809017 0.100406
vt 0.000000 0.363271
vt 0.000000 0.688191
vt 0.190983 0.951056
vt 0.500000 1.051462
vt 0.809017 0.951056
vt 1.000000 0.363271
vt 1.000000 0.688191
vn -0.000000 0.000000 1.000000
s off
f 3/1/1 4/2/1 5/3/1
f 2/4/1 3/1/1 5/3/1
f 1/5/1 2/4/1 5/3/1
f 1/5/1 5/3/1 10/6/1
f 9/7/1 10/6/1 8/8/1
f 8/8/1 10/6/1 5/3/1
f 6/9/1 8/8/1 5/3/1
f 7/10/1 8/8/1 6/9/1
